<svg width="1200" height="1600" viewBox="0 0 1200 1600" xmlns="http://www.w3.org/2000/svg">
  <defs>
    <linearGradient id="feather-body" x1="0" y1="0" x2="0" y2="1">
      <stop offset="0%" stop-color="#ffffff" stop-opacity="0.94" />
      <stop offset="45%" stop-color="#f3f6ff" stop-opacity="0.82" />
      <stop offset="100%" stop-color="#d9e2f5" stop-opacity="0.72" />
    </linearGradient>
    <linearGradient id="feather-highlight" x1="0" y1="0" x2="1" y2="1">
      <stop offset="0%" stop-color="#ffffff" stop-opacity="0.95" />
      <stop offset="100%" stop-color="#ffffff" stop-opacity="0" />
    </linearGradient>
    <linearGradient id="feather-vein" x1="0" y1="0" x2="0" y2="1">
      <stop offset="0%" stop-color="#dae6fb" stop-opacity="0.95" />
      <stop offset="100%" stop-color="#c6d7f2" stop-opacity="0.35" />
    </linearGradient>
    <filter id="soften" x="-20%" y="-20%" width="140%" height="140%">
      <feGaussianBlur in="SourceGraphic" stdDeviation="8" />
    </filter>
  </defs>
  <g filter="url(#soften)">
    <path fill="url(#feather-body)" d="M612 118C520 182 414 304 352 470C298 616 278 788 304 932C336 1124 430 1312 566 1476C590 1504 610 1516 624 1516C638 1516 658 1504 682 1476C818 1312 912 1124 944 932C970 788 950 616 896 470C834 304 728 182 636 118C624 110 620 110 612 118Z" />
    <path fill="url(#feather-highlight)" d="M604 160C522 230 448 354 404 508C370 632 356 778 376 906C402 1078 480 1244 596 1386C612 1406 626 1414 636 1414C646 1414 660 1406 676 1386C792 1244 870 1078 896 906C916 778 902 632 868 508C824 354 750 230 668 160C642 138 622 138 604 160Z" opacity="0.58" />
    <path fill="none" stroke="url(#feather-vein)" stroke-width="12" stroke-linecap="round" d="M620 156C620 428 620 738 620 1024C620 1184 616 1314 598 1436" opacity="0.6" />
    <path fill="none" stroke="#d8e4f8" stroke-width="8" stroke-linecap="round" opacity="0.42" d="M640 324C694 430 748 534 802 604M640 460C716 574 794 676 866 758M628 600C706 700 788 796 860 866M610 736C690 822 768 894 834 956M600 870C676 942 748 998 804 1040M586 996C654 1048 710 1084 760 1114" />
    <path fill="none" stroke="#e6efff" stroke-width="8" stroke-linecap="round" opacity="0.34" d="M600 324C546 430 492 534 438 604M600 460C524 574 446 676 374 758M612 600C534 700 452 796 380 866M630 736C550 822 472 894 406 956M640 870C564 942 492 998 436 1040M654 996C586 1048 530 1084 480 1114" />
    <path fill="none" stroke="#cfdcf2" stroke-width="6" stroke-linecap="round" opacity="0.42" d="M642 258C714 352 778 462 826 580M644 544C708 634 772 710 834 770M628 806C684 860 734 902 786 938M594 1068C648 1096 694 1118 738 1134" />
    <path fill="none" stroke="#e1ecff" stroke-width="6" stroke-linecap="round" opacity="0.32" d="M596 258C524 352 460 462 412 580M594 544C530 634 466 710 404 770M610 806C554 860 504 902 452 938M644 1068C590 1096 544 1118 500 1134" />
  </g>
</svg>
